<svg width="187" height="32" viewBox="0 0 187 32" fill="none" xmlns="http://www.w3.org/2000/svg">
<path fill-rule="evenodd" clip-rule="evenodd" d="M22 24.3111C28.8851 24.3111 34.4667 20.5901 34.4667 16C34.4667 11.4099 28.8851 7.6889 22 7.6889C15.1148 7.6889 9.53333 11.4099 9.53333 16C9.53333 20.5901 15.1148 24.3111 22 24.3111ZM22 30.6667C34.1503 30.6667 44 24.1002 44 16C44 7.89983 34.1503 1.33334 22 1.33334C9.84973 1.33334 0 7.89983 0 16C0 24.1002 9.84973 30.6667 22 30.6667Z" fill="#513CCE"/>
<path d="M22.2517 16.3211C24.5427 14.7938 28.2573 14.7938 30.5484 16.3211L41.9564 23.9265C44.2474 25.4539 44.2474 27.9302 41.9564 29.4576C39.6653 30.985 35.9507 30.985 33.6597 29.4576L22.2517 21.8523C19.9606 20.3249 19.9606 17.8485 22.2517 16.3211Z" fill="#E24B7F"/>
<path opacity="0.7" d="M25.455 23.9878L32.7003 28.8181C36.1755 27.526 39.0708 25.6239 41.0604 23.3292L33.8745 18.5385C32.6122 21.1648 29.444 23.2224 25.455 23.9878Z" fill="#513CCE"/>
<path d="M79.52 24.0667C78.8854 24.5893 78.1107 24.9876 77.196 25.2613C76.3 25.5351 75.3107 25.672 74.228 25.672C72.772 25.672 71.456 25.4605 70.28 25.0373C69.104 24.6267 67.76 23.8925 66.248 22.8347C64.4747 22.6853 62.888 22.3058 61.488 21.696C60.1067 21.0862 59.024 20.3022 58.24 19.344C57.4747 18.3733 57.092 17.3031 57.092 16.1333C57.092 14.8516 57.5494 13.7005 58.464 12.68C59.3974 11.6471 60.676 10.8382 62.3 10.2533C63.9427 9.66846 65.7814 9.37601 67.816 9.37601C69.8507 9.37601 71.68 9.66846 73.304 10.2533C74.928 10.8382 76.2067 11.6471 77.14 12.68C78.0734 13.7005 78.54 14.8516 78.54 16.1333C78.54 17.6516 77.896 18.9831 76.608 20.128C75.3387 21.2729 73.6494 22.0693 71.54 22.5173C72.0067 22.8409 72.4547 23.0711 72.884 23.208C73.332 23.3573 73.808 23.432 74.312 23.432C75.5254 23.432 76.5894 23.1085 77.504 22.4613L79.52 24.0667ZM61.684 16.1333C61.684 16.9422 61.9454 17.664 62.468 18.2987C63.0094 18.9333 63.7467 19.4311 64.68 19.792C65.6134 20.1405 66.6587 20.3147 67.816 20.3147C68.9734 20.3147 70.0187 20.1405 70.952 19.792C71.8854 19.4311 72.6134 18.9333 73.136 18.2987C73.6774 17.664 73.948 16.9422 73.948 16.1333C73.948 15.3245 73.6774 14.6027 73.136 13.968C72.6134 13.3333 71.8854 12.8418 70.952 12.4933C70.0187 12.1325 68.9734 11.952 67.816 11.952C66.6587 11.952 65.6134 12.1325 64.68 12.4933C63.7467 12.8418 63.0094 13.3333 62.468 13.968C61.9454 14.6027 61.684 15.3245 61.684 16.1333Z" fill="#0E253C"/>
<path d="M96.817 12.624V22.6667H92.673V21.472C92.0944 21.9076 91.4037 22.2436 90.601 22.48C89.7984 22.704 88.9304 22.816 87.997 22.816C86.0184 22.816 84.4504 22.4365 83.293 21.6773C82.1357 20.9182 81.557 19.792 81.557 18.2987V12.624H85.925V17.8693C85.925 19.4871 86.9424 20.296 88.977 20.296C90.0224 20.296 90.8624 20.072 91.497 19.624C92.1317 19.1636 92.449 18.4853 92.449 17.5893V12.624H96.817Z" fill="#0E253C"/>
<path d="M108.032 22.816C106.445 22.816 105.017 22.5982 103.748 22.1627C102.497 21.7147 101.517 21.0987 100.808 20.3147C100.098 19.5307 99.7437 18.6409 99.7437 17.6453C99.7437 16.6498 100.098 15.76 100.808 14.976C101.517 14.192 102.497 13.5822 103.748 13.1467C105.017 12.6987 106.445 12.4747 108.032 12.4747C109.618 12.4747 111.037 12.6987 112.288 13.1467C113.538 13.5822 114.518 14.192 115.228 14.976C115.937 15.76 116.292 16.6498 116.292 17.6453C116.292 18.6409 115.937 19.5307 115.228 20.3147C114.518 21.0987 113.538 21.7147 112.288 22.1627C111.037 22.5982 109.618 22.816 108.032 22.816ZM108.032 20.4267C109.152 20.4267 110.066 20.1778 110.776 19.68C111.504 19.1698 111.868 18.4916 111.868 17.6453C111.868 16.7991 111.504 16.1271 110.776 15.6293C110.066 15.1191 109.152 14.864 108.032 14.864C106.912 14.864 105.988 15.1191 105.26 15.6293C104.532 16.1271 104.168 16.7991 104.168 17.6453C104.168 18.4916 104.532 19.1698 105.26 19.68C105.988 20.1778 106.912 20.4267 108.032 20.4267Z" fill="#0E253C"/>
<path d="M128.927 22.1813C128.498 22.3929 127.966 22.5547 127.331 22.6667C126.715 22.7662 126.062 22.816 125.371 22.816C123.579 22.816 122.189 22.5111 121.199 21.9013C120.229 21.2916 119.743 20.3956 119.743 19.2133V15.088H117.419V12.848H119.743V10.4027H124.111V12.848H127.863V15.088H124.111V19.176C124.111 19.5991 124.27 19.9289 124.587 20.1653C124.923 20.3893 125.39 20.5013 125.987 20.5013C126.678 20.5013 127.266 20.3769 127.751 20.128L128.927 22.1813Z" fill="#0E253C"/>
<path d="M131.379 12.624H135.747V22.6667H131.379V12.624ZM133.563 11.224C132.761 11.224 132.107 11.0685 131.603 10.7573C131.099 10.4462 130.847 10.0605 130.847 9.60001C130.847 9.13957 131.099 8.75379 131.603 8.44268C132.107 8.13157 132.761 7.97601 133.563 7.97601C134.366 7.97601 135.019 8.12535 135.523 8.42401C136.027 8.72268 136.279 9.09601 136.279 9.54401C136.279 10.0293 136.027 10.4338 135.523 10.7573C135.019 11.0685 134.366 11.224 133.563 11.224Z" fill="#0E253C"/>
<path d="M154.557 17.6827C154.557 17.72 154.529 17.9813 154.473 18.4667H143.077C143.283 19.0889 143.768 19.5805 144.533 19.9413C145.299 20.3022 146.251 20.4827 147.389 20.4827C148.173 20.4827 148.864 20.408 149.461 20.2587C150.077 20.0969 150.647 19.848 151.169 19.512L153.493 21.192C152.075 22.2747 150.003 22.816 147.277 22.816C145.579 22.816 144.076 22.5982 142.769 22.1627C141.463 21.7147 140.455 21.0987 139.745 20.3147C139.036 19.5307 138.681 18.6409 138.681 17.6453C138.681 16.6622 139.027 15.7787 139.717 14.9947C140.427 14.1982 141.388 13.5822 142.601 13.1467C143.833 12.6987 145.205 12.4747 146.717 12.4747C148.192 12.4747 149.527 12.6862 150.721 13.1093C151.916 13.5325 152.849 14.1422 153.521 14.9387C154.212 15.7227 154.557 16.6373 154.557 17.6827ZM146.745 14.6773C145.756 14.6773 144.925 14.864 144.253 15.2373C143.581 15.6107 143.171 16.1209 143.021 16.768H150.441C150.292 16.1333 149.881 15.6293 149.209 15.256C148.537 14.8702 147.716 14.6773 146.745 14.6773Z" fill="#0E253C"/>
<path d="M166.621 12.4747C168.488 12.4747 169.991 12.848 171.129 13.5947C172.287 14.3413 172.865 15.4489 172.865 16.9173V22.6667H168.497V17.3653C168.497 16.5689 168.236 15.9778 167.713 15.592C167.191 15.1938 166.435 14.9947 165.445 14.9947C164.344 14.9947 163.467 15.2249 162.813 15.6853C162.16 16.1333 161.833 16.8053 161.833 17.7013V22.6667H157.465V12.624H161.637V13.8C162.216 13.3769 162.935 13.0533 163.793 12.8293C164.652 12.5929 165.595 12.4747 166.621 12.4747Z" fill="#0E253C"/>
<path d="M186.541 22.1813C186.111 22.3929 185.579 22.5547 184.945 22.6667C184.329 22.7662 183.675 22.816 182.985 22.816C181.193 22.816 179.802 22.5111 178.813 21.9013C177.842 21.2916 177.357 20.3956 177.357 19.2133V15.088H175.033V12.848H177.357V10.4027H181.725V12.848H185.477V15.088H181.725V19.176C181.725 19.5991 181.883 19.9289 182.201 20.1653C182.537 20.3893 183.003 20.5013 183.601 20.5013C184.291 20.5013 184.879 20.3769 185.365 20.128L186.541 22.1813Z" fill="#0E253C"/>
</svg>
