<svg width="28" height="28" viewBox="0 0 28 28" fill="none" xmlns="http://www.w3.org/2000/svg">
<rect x="0.5" y="0.5" width="27" height="27" rx="13.5" stroke="#0E253C" stroke-opacity="0.1"/>
<g clip-path="url(#clip0_38_23578)">
<path fill-rule="evenodd" clip-rule="evenodd" d="M8 9.33333C8 8.97971 8.14048 8.64057 8.39052 8.39052C8.64057 8.14048 8.97971 8 9.33333 8H18.6667C19.0203 8 19.3594 8.14048 19.6095 8.39052C19.8595 8.64057 20 8.97971 20 9.33333V18.6667C20 19.0203 19.8595 19.3594 19.6095 19.6095C19.3594 19.8595 19.0203 20 18.6667 20H9.33333C8.97971 20 8.64057 19.8595 8.39052 19.6095C8.14048 19.3594 8 19.0203 8 18.6667V9.33333ZM9.33333 9.33333H11.3333V18.6667H9.33333V9.33333ZM16.8047 13.0573L15.862 14L16.8047 14.9427C16.9261 15.0684 16.9933 15.2368 16.9918 15.4116C16.9903 15.5864 16.9202 15.7536 16.7965 15.8772C16.6729 16.0008 16.5057 16.0709 16.3309 16.0724C16.1561 16.074 15.9877 16.0068 15.862 15.8853L14.448 14.472C14.386 14.4101 14.3368 14.3366 14.3033 14.2556C14.2697 14.1747 14.2525 14.0879 14.2525 14.0003C14.2525 13.9127 14.2697 13.826 14.3033 13.745C14.3368 13.6641 14.386 13.5906 14.448 13.5287L15.862 12.1147C15.9235 12.051 15.9971 12.0002 16.0784 11.9653C16.1597 11.9303 16.2472 11.9119 16.3357 11.9112C16.4243 11.9104 16.512 11.9273 16.594 11.9608C16.6759 11.9943 16.7503 12.0438 16.8129 12.1064C16.8755 12.169 16.925 12.2434 16.9585 12.3254C16.9921 12.4073 17.0089 12.4951 17.0082 12.5836C17.0074 12.6721 16.989 12.7596 16.9541 12.8409C16.9191 12.9223 16.8683 12.9958 16.8047 13.0573Z" fill="#0E253C" fill-opacity="0.85"/>
</g>
<defs>
<clipPath id="clip0_38_23578">
<rect width="16" height="16" fill="white" transform="translate(6 6)"/>
</clipPath>
</defs>
</svg>
